<?xml version="1.0" encoding="utf-8"?>
<!-- Generator: Adobe Illustrator 24.0.0, SVG Export Plug-In . SVG Version: 6.00 Build 0)  -->
<svg version="1.1" id="图层_1" xmlns="http://www.w3.org/2000/svg" xmlns:xlink="http://www.w3.org/1999/xlink" x="0px" y="0px"
	 viewBox="0 0 38 46" style="enable-background:new 0 0 38 46;" xml:space="preserve">
<style type="text/css">
	.st0{fill:#6B6498;}
	.st1{opacity:0.4277;fill:#C0BCDB;enable-background:new    ;}
	.st2{enable-background:new    ;}
	.st3{fill:#FFFFFF;}
	.st4{font-family:'ArialRoundedMTBold';}
	.st5{font-size:24px;}
</style>
<title>TXT</title>
<g id="资产管理">
	<g id="接口管理" transform="translate(76, 0)">
		<g id="编组-6" transform="translate(480, 232)">
			<g id="TXT" transform="translate(20, 30)">
				<path id="矩形" class="st0" d="M-568-262l19.7,0l0,0l10.2,10.1v27.8c0,4.4-3.6,8-8,8h-22c-4.4,0-8-3.6-8-8v-30
					C-576-258.4-572.4-262-568-262C-568-262-568-262-568-262z"/>
				<path id="矩形_1_" class="st1" d="M-538-251.8l-6.3,0c-2.2,0-4-1.8-4-4v-6.1l0,0L-538-251.8z"/>
				<g id="T">
					<g>
						<g class="st2">
							<text transform="matrix(1 0 0 1 -564.748 -227.5888)" class="st3 st4 st5">T</text>
						</g>
					</g>
				</g>
			</g>
		</g>
	</g>
</g>
</svg>
