<?xml version="1.0" encoding="utf-8"?>
<!-- Generator: Adobe Illustrator 24.0.0, SVG Export Plug-In . SVG Version: 6.00 Build 0)  -->
<svg version="1.1" id="图层_1" xmlns="http://www.w3.org/2000/svg" xmlns:xlink="http://www.w3.org/1999/xlink" x="0px" y="0px"
	 viewBox="0 0 16 18" style="enable-background:new 0 0 16 18;" xml:space="preserve">
<style type="text/css">
	.st0{fill:#D9D5EF;}
</style>
<title>xiaoxi-2</title>
<g id="全局消息">
	<g id="编组-9" transform="translate(-30, -864)">
		<g id="下载" transform="translate(18, 853)">
			<g id="xiaoxi-2" transform="translate(12, 11)">
				<path id="形状" class="st0" d="M9.8,1.6C9.8,0.7,9,0,8,0C7,0,6.2,0.7,6.2,1.6c0,0.1,0,0.2,0,0.3C3.8,2.6,1.8,5,1.8,7.8V10
					c0,0,0,3.2-0.9,3.2C0.4,13.2,0,13.6,0,14c0,0.4,0.4,0.8,0.9,0.8h14.2c0.5,0,0.9-0.4,0.9-0.8c0-0.4-0.4-0.8-0.9-0.8
					c-0.9,0-0.9-3.2-0.9-3.2V7.8c0-2.8-1.9-5.2-4.5-5.9C9.8,1.8,9.8,1.7,9.8,1.6z M10.7,15.6c0,1.3-1.2,2.4-2.7,2.4
					c-1.5,0-2.7-1.1-2.7-2.4"/>
			</g>
		</g>
	</g>
</g>
</svg>
