<?xml version="1.0" encoding="UTF-8"?>
<svg width="60px" height="60px" viewBox="0 0 60 60" version="1.1" xmlns="http://www.w3.org/2000/svg" xmlns:xlink="http://www.w3.org/1999/xlink">
    <title>用户管理</title>
    <g id="全局消息" stroke="none" stroke-width="1" fill="none" fill-rule="evenodd">
        <g id="工作台-消息提示" transform="translate(-1340, -80)">
            <g id="快捷导航" transform="translate(308, 24)">
                <g id="1" transform="translate(1027, 56)">
                    <g id="用户管理" transform="translate(5, 0)">
                        <rect id="矩形" fill="#EFEDFF" x="0" y="0" width="60" height="60" rx="22"></rect>
                        <g id="yonghuguanli" transform="translate(15, 16)">
                            <path d="M12.75,13.5 C16.4779221,13.5 19.5,10.4779221 19.5,6.75 C19.5,3.02207794 16.4779221,0 12.75,0 C9.02207794,0 6,3.02207794 6,6.75 C6,10.4779221 9.02207794,13.5 12.75,13.5 Z M14.3200133,15.2115385 L7.16813674,15.2115385 C5.23519712,15.2115385 2.52908167,16.1730769 1.75590582,18.8653846 C0.789436018,21.5576923 0.789436018,21.5576923 0.0162601731,24.25 C-0.370327749,25.5961538 6.20166693,26.3653846 12.7736616,26.3653846 C14.8998952,26.3653846 13.5468375,24.6346154 13.5468375,22.5192308 C13.3535435,17.3269231 17.6060106,15.2115385 14.3200133,15.2115385 Z" id="形状" fill="#7E69FF"></path>
                            <path d="M30,22.5 L30,19.5 C30,19.5 28.0120482,19.125 28.0120482,18.9375 C28.0120482,18.75 28.0120482,18.5625 27.8313253,18.5625 C28.0120482,18.1875 29.0963855,17.25 29.0963855,17.25 L26.9277108,14.25 C26.9277108,14.25 25.4819277,15.375 25.1204819,15.5625 C24.939759,15.5625 24.7590361,15.375 24.5783133,15.375 C24.3975904,15.375 23.8554217,13.5 23.8554217,13.5 L20.9638554,13.5 C20.9638554,13.5 20.6024096,15.375 20.2409639,15.375 C20.060241,15.375 19.8795181,15.5625 19.6987952,15.5625 C19.3373494,15.375 17.8915663,14.25 17.8915663,14.25 L15.9036145,17.25 C15.9036145,17.25 16.9879518,18.375 16.9879518,18.75 C16.9879518,18.9375 16.8072289,18.9375 16.8072289,19.125 C16.2650602,19.3125 15,19.5 15,19.5 L15,22.5 C15,22.5 16.626506,22.875 16.8072289,23.0625 C16.8072289,23.25 16.9879518,23.4375 16.9879518,23.625 C16.626506,24 15.7228916,24.75 15.7228916,24.75 L17.8915663,27.75 C17.8915663,27.75 19.6987952,26.625 19.8795181,26.4375 C20.060241,26.4375 20.2409639,26.625 20.2409639,26.625 C20.4216867,26.625 20.7831325,28.5 20.7831325,28.5 L23.6746988,28.5 C23.6746988,28.5 23.8554217,26.8125 24.0361446,26.8125 C24.2168675,26.8125 24.3975904,26.625 24.5783133,26.625 C24.7590361,26.8125 26.0240964,27.9375 26.0240964,27.9375 L28.9156627,24.9375 C28.9156627,24.9375 27.8313253,24.1875 27.4698795,23.8125 C27.4698795,23.625 27.6506024,23.4375 27.6506024,23.25 C28.1927711,22.875 30,22.5 30,22.5 L30,22.5 Z" id="路径" fill="#7E69FF"></path>
                            <path d="M22.5,24.75 C20.4375,24.75 18.75,23.0625 18.75,21 C18.75,18.9375 20.4375,17.25 22.5,17.25 C24.5625,17.25 26.25,18.9375 26.25,21 C26.25,23.0625 24.5625,24.75 22.5,24.75 Z" id="路径" fill="#ECEAFF"></path>
                        </g>
                    </g>
                </g>
            </g>
        </g>
    </g>
</svg>